<?xml version="1.0" encoding="UTF-8" standalone="no"?>
<!-- Generator: Adobe Illustrator 16.0.0, SVG Export Plug-In . SVG Version: 6.00 Build 0)  -->

<svg
   xmlns:dc="http://purl.org/dc/elements/1.1/"
   xmlns:cc="http://creativecommons.org/ns#"
   xmlns:rdf="http://www.w3.org/1999/02/22-rdf-syntax-ns#"
   xmlns:svg="http://www.w3.org/2000/svg"
   xmlns="http://www.w3.org/2000/svg"
   xmlns:sodipodi="http://sodipodi.sourceforge.net/DTD/sodipodi-0.dtd"
   xmlns:inkscape="http://www.inkscape.org/namespaces/inkscape"
   version="1.1"
   id="Livello_1"
   x="0px"
   y="0px"
   width="42px"
   height="49px"
   viewBox="0 0 42 49"
   enable-background="new 0 0 42 49"
   xml:space="preserve"
   inkscape:version="0.48.4 r9939"
   sodipodi:docname="marker 21_01_14.svg"><metadata
   id="metadata13"><rdf:RDF><cc:Work
       rdf:about=""><dc:format>image/svg+xml</dc:format><dc:type
         rdf:resource="http://purl.org/dc/dcmitype/StillImage" /><dc:title></dc:title></cc:Work></rdf:RDF></metadata><defs
   id="defs11" /><sodipodi:namedview
   pagecolor="#ffffff"
   bordercolor="#666666"
   borderopacity="1"
   objecttolerance="10"
   gridtolerance="10"
   guidetolerance="10"
   inkscape:pageopacity="0"
   inkscape:pageshadow="2"
   inkscape:window-width="1680"
   inkscape:window-height="987"
   id="namedview9"
   showgrid="false"
   inkscape:zoom="4.8163265"
   inkscape:cx="-3.8114407"
   inkscape:cy="24.5"
   inkscape:window-x="-8"
   inkscape:window-y="-8"
   inkscape:window-maximized="1"
   inkscape:current-layer="Livello_1" />
<g
   id="g3"
   transform="matrix(1.2421892,0,0,1.2421892,-5.1001002,-6.4253742)"
   inkscape:export-filename="C:\Users\aborruso\Documents\GitHub\GoogleMapStyle\imgs\irene.png"
   inkscape:export-xdpi="90"
   inkscape:export-ydpi="90">
	<path
   d="M 20.998,42.631 C 19.981,41.463 12.364,31.738 10.621,27.363 9.33,24.122 8.962,20.86 10.425,17.554 12.486,12.896 17.39,9.936 22.15,10.498 c 5.369,0.634 9.377,4.364 10.322,9.64 0.48,2.687 -0.139,5.229 -1.179,7.679 -2.326,5.48 -10.097,14.654 -10.295,14.814 z"
   id="path5"
   inkscape:connector-curvature="0"
   style="fill:#e52620" />
	<path
   d="m 21.055,16.02 c -3.392,-0.002 -6.171,2.751 -6.189,6.132 -0.019,3.406 2.772,6.218 6.176,6.224 3.4,0.006 6.2,-2.803 6.189,-6.209 -0.011,-3.382 -2.787,-6.145 -6.176,-6.147 z"
   id="path7"
   inkscape:connector-curvature="0"
   style="fill:#ffffff" />
</g>
</svg>